<svg height="50" viewBox="0 0 192 50" width="192" xmlns="http://www.w3.org/2000/svg"><g fill="none" fill-rule="evenodd"><path d="m62.896 19.826h-2.076l-.993 4.635h2.096c1.304 0 2.23-.816 2.54-2.317.33-1.523-.266-2.318-1.568-2.318m5.055 2.605c-.662 3.135-2.914 4.768-6.115 4.768h-2.582l-1.17 5.562s-.684.199-1.81.199c-1.192 0-1.721-.199-1.721-.199l3.332-15.694h6.116c3.2 0 4.635 2.207 3.95 5.364m6.467 4.679c.595-2.78.088-3.487-1.038-3.487-1.148 0-1.964.706-2.56 3.488-.575 2.78-.088 3.509 1.06 3.509 1.125 0 1.964-.728 2.538-3.51m-7.042-.308c.95-4.393 3.201-5.762 6.446-5.762 3.266 0 4.988 1.92 4.04 6.313-.928 4.393-3.18 5.828-6.424 5.828-3.245 0-4.988-1.987-4.062-6.38m10.02 5.496c.199-.949.64-1.743 1.325-2.318 0 0 1.302.508 2.825.508 1.148 0 1.677-.33 1.81-.971.176-.772-.927-.97-2.054-1.368-1.301-.442-2.603-1.457-2.096-3.687.485-2.119 2.096-3.42 5.143-3.42 2.428 0 3.421.684 3.421.684-.154.816-.552 1.721-1.258 2.273 0 0-1.06-.353-2.362-.353-1.17 0-1.743.353-1.876.97-.155.774 1.214.928 2.428 1.392 1.5.574 2.318 1.588 1.854 3.708-.507 2.362-2.141 3.466-5.275 3.466-2.56 0-3.885-.884-3.885-.884m12.227-12.603.64-2.98s.552-.176 1.722-.176c1.082 0 1.678.176 1.678.176l-.64 2.98s-.662.176-1.744.176c-1.148 0-1.656-.176-1.656-.176m-2.759 13.089 2.406-11.346s.574-.176 1.743-.176c1.083 0 1.656.176 1.656.176l-2.406 11.346s-.662.177-1.743.177c-1.148 0-1.656-.177-1.656-.177m14.013-10.22a5.35 5.35 0 0 1 -.42 1.214h-2.384l-1.036 4.923c-.332 1.523.22 1.877 1.39 1.877.441 0 .905-.089.905-.089s.154.508-.022 1.347c-.155.684-.397 1.103-.397 1.103a8.067 8.067 0 0 1 -2.03.244c-2.981 0-3.908-1.325-3.268-4.393l1.06-5.01h-1.59s-.044-.464.111-1.192c.176-.817.42-1.236.42-1.236h1.588l.42-1.965c.949-.464 2.339-.662 3.509-.552l-.53 2.517h2.384s.066.44-.11 1.213m1.587-2.87.64-2.98s.552-.176 1.723-.176c1.081 0 1.677.176 1.677.176l-.64 2.98s-.662.176-1.744.176c-1.147 0-1.656-.176-1.656-.176m-2.758 13.089 2.405-11.346s.574-.176 1.744-.176c1.082 0 1.655.176 1.655.176l-2.405 11.346s-.663.177-1.744.177c-1.148 0-1.655-.177-1.655-.177m7.684 0-1.192-11.345s.75-.177 1.81-.177c1.126 0 1.567.177 1.567.177l.486 5.164c.133 1.744-.044 3.31-.044 3.31h.088s.53-1.566 1.435-3.332l2.715-5.142s.772-.177 1.721-.177c1.016 0 1.545.177 1.545.177l-5.915 11.345s-.86.177-2.142.177c-1.345 0-2.074-.177-2.074-.177m12.492-6.776h3.134l.199-.685c.198-1.015.022-1.81-1.037-1.81-.906 0-1.722.663-2.296 2.495m6.423-.199c-.31 1.457-.707 2.317-.707 2.317h-6.136c-.286 1.81.574 2.274 1.898 2.274 1.37 0 2.45-.53 2.45-.53.42.464.707 1.436.53 2.318 0 0-1.302.994-3.907.994-3.62 0-5.054-2.252-4.193-6.358.905-4.193 3.156-5.783 6.356-5.783 2.517 0 4.372 1.611 3.709 4.768m7.693 1.148h3.907l-.441-3.995a19.234 19.234 0 0 1 -.089-2.583h-.088c.022.508-.575 1.546-1.148 2.583l-2.14 3.995zm7.968 5.805c-.286.088-.992.199-1.898.199-.839 0-1.368-.11-1.546-.2l-.352-3.222h-5.54l-1.722 3.223c-.332.088-1.081.199-1.877.199-.75 0-1.346-.11-1.589-.2l8.322-15.494c.375-.088 1.257-.199 2.273-.199 1.06 0 1.877.111 2.185.199zm.947-5.606c.861-4.061 2.98-6.115 6.446-6.115 2.296 0 2.946.92 2.946.92-.2.861-.988 2.047-1.457 2.318-.12-.134-.514-.59-1.4-.545-1.396.071-2.516.994-3.025 3.4-.506 2.362.022 3.266 1.7 3.266 1.06 0 2.147-.6 2.147-.6.44.53.729 1.742.596 2.648 0 0-1.603.876-4.089.734-3.438-.198-4.724-1.943-3.864-6.026m17.624-4.592c-.154.707-.42 1.214-.42 1.214h-2.384l-1.036 4.922c-.332 1.523.22 1.877 1.39 1.877.44 0 .905-.089.905-.089s.154.508-.022 1.347c-.155.684-.397 1.103-.397 1.103a8.07 8.07 0 0 1 -2.03.244c-2.981 0-3.909-1.325-3.268-4.393l1.06-5.01h-1.59s-.044-.464.11-1.192c.177-.817.42-1.236.42-1.236h1.59l.418-1.965c.95-.464 2.34-.662 3.51-.552l-.53 2.517h2.384s.066.44-.11 1.213m-1.17 10.22 2.405-11.345s.575-.177 1.745-.177c1.08 0 1.655.177 1.655.177l-2.406 11.345s-.662.177-1.744.177c-1.148 0-1.655-.177-1.655-.177m2.759-13.089.64-2.98s.552-.176 1.722-.176c1.081 0 1.677.176 1.677.176l-.64 2.98s-.662.176-1.744.176c-1.148 0-1.655-.176-1.655-.176m10.065 7.416c.595-2.78.087-3.487-1.038-3.487-1.148 0-1.964.706-2.56 3.488-.574 2.78-.089 3.509 1.06 3.509 1.125 0 1.964-.728 2.538-3.51m-7.042-.308c.95-4.393 3.2-5.762 6.445-5.762 3.267 0 4.989 1.92 4.04 6.313-.927 4.393-3.18 5.828-6.423 5.828-3.244 0-4.99-1.987-4.062-6.38m21.85-1.921-1.677 7.903s-.618.177-1.743.177c-1.148 0-1.657-.177-1.657-.177l1.633-7.748c.178-.816-.11-1.324-1.124-1.324-.552 0-1.126.22-1.656.64l-1.788 8.432s-.64.177-1.744.177c-1.148 0-1.655-.177-1.655-.177l2.405-11.346s.597-.176 1.745-.176c1.104 0 1.478.176 1.478.176v.928c1.038-.905 2.054-1.302 3.224-1.302 2.25 0 3.068 1.39 2.559 3.818m2.734 5.798c0-.135-.085-.202-.228-.202h-.262v.396h.262c.143 0 .228-.059.228-.194m.15.55.457.709s-.118.067-.295.067a.66.66 0 0 1 -.246-.042l-.455-.684h-.101v.684s-.11.042-.254.042a.666.666 0 0 1 -.253-.042v-1.883h.845c.405 0 .674.245.674.6a.557.557 0 0 1 -.371.55m.921-.153c0-.769-.609-1.376-1.377-1.376-.76 0-1.384.607-1.384 1.376 0 .768.625 1.385 1.384 1.385.768 0 1.377-.617 1.377-1.385m.506 0a1.885 1.885 0 0 1 -1.883 1.884 1.886 1.886 0 0 1 -1.883-1.884 1.884 1.884 0 0 1 3.765 0" fill="#3c3c3b"/><path d="m8.987 33.854c-4.955 0-8.987-4.032-8.987-8.987s4.032-8.987 8.987-8.987h4.34l1.304 3.258h-5.518c-1.726 0-3.346.77-4.441 2.112a5.758 5.758 0 0 0 -1.165 4.818c.537 2.624 2.961 4.527 5.765 4.527h15.645l1.304 3.26h-17.234z" fill="#3290ce"/><path d="m36.407 33.854-1.304-3.258h5.518c1.727 0 3.345-.77 4.441-2.113a5.755 5.755 0 0 0 1.165-4.817c-.537-2.624-2.962-4.528-5.766-4.528h-15.644l-1.304-3.258h17.233c4.956 0 8.987 4.032 8.987 8.987s-4.031 8.987-8.987 8.987z" fill="#f7b90c"/><path d="m15.88 8.987c0-4.955 4.032-8.987 8.987-8.987s8.987 4.032 8.987 8.987v4.34l-3.258 1.303v-5.517a5.736 5.736 0 0 0 -6.93-5.606c-2.624.537-4.528 2.962-4.528 5.765v15.645l-3.258 1.304z" fill="#00a14e"/><path d="m24.867 49.734c-4.955 0-8.987-4.032-8.987-8.987v-4.34l3.258-1.304v5.518a5.735 5.735 0 0 0 6.93 5.605c2.623-.536 4.528-2.961 4.528-5.765v-15.645l3.258-1.303v17.234c0 4.955-4.032 8.987-8.987 8.987" fill="#e7451c"/></g></svg>